<svg version="1.1" xmlns="http://www.w3.org/2000/svg"
  viewBox="0 0 71.07602518349177 71.07602518349222" width="71.1" height="71.1">
  <!-- svg-source:excalidraw -->

  <defs>
    <style>

    </style>

  </defs>
  <g stroke-linecap="round" transform="translate(10,10) rotate(90,25.5,25.5)">
    <path
      d="M 16.6 1.6 C 21.5 -0.7 29.1 -0.9 34.1 0.9 C 39.2 2.7 44.1 7.3 46.9 12.2 C 49.7 17.1 51.7 24.9 50.9 30.4 C 50.1 35.8 46.4 41.4 42.2 44.8 C 38 48.2 31 51 25.5 50.9 C 20 50.8 13.2 47.5 9.1 44.1 C 5.1 40.8 2.3 36.3 1.3 30.9 C 0.3 25.5 0.1 16.7 3.3 11.8 C 6.3 6.9 16.7 3.4 19.9 1.5 C 23 -0.5 22 -0.2 22.1 0.2 M 36 1.7 C 41.4 3.1 47 7.8 49.3 12.9 C 51.7 18 51.4 26.7 50.3 32.2 C 49.1 37.7 46.8 42.9 42.6 46.1 C 38.4 49.3 30.8 51.9 25.1 51.4 C 19.4 51 12.2 47 8.2 43.5 C 4.1 40 1.8 35.4 0.9 30.3 C -0.1 25.3 -0.3 17.8 2.5 13.1 C 5.3 8.4 12.3 3.6 17.8 2 C 23.3 0.4 32.6 3.5 35.5 3.3 C 38.3 3.1 35 0.8 34.9 1"
      stroke="#fff" stroke-width="1" fill="none">
    </path>
  </g>
  <g stroke-linecap="round">
    <g transform="translate(21.9,37) rotate(0,14.1,0.1)">
      <path d="M 0 -0.4 C 4.7 -0.5 23.6 -0.1 28.3 -0.1 M -0.7 0.5 C 3.9 0.5 23.2 0.5 27.9 0.5"
        stroke="#fff" stroke-width="1" fill="#none">
      </path>
    </g>
  </g>
  <mask>
  </mask>
  <g stroke-linecap="round">
    <g transform="translate(53.2,31.5) rotate(273.6,-7.3,3.9)">
      <path
        d="M 0 0 C -2.5 2.2 -4.4 4.3 -7.3 7.9 M 0 0 C -1.8 1.9 -3.8 3.7 -7.3 7.9 M -7.3 7.9 C -8.9 5.8 -10.8 4 -14.6 0.1 M -7.3 7.9 C -9.2 5.5 -11.9 3.3 -14.6 0.1"
        stroke="#fff" stroke-width="1" fill="#fff">
      </path>
    </g>
  </g>
  <mask>
  </mask>
</svg>