<svg version="1.1" xmlns="http://www.w3.org/2000/svg" viewBox="0 0 68.39079101764673 68.39079101764673" width="68.39079101764673" height="68.39079101764673">
  <!-- svg-source:excalidraw -->
  
  <defs>
    <style class="style-fonts">
      
    </style>
    
  </defs>
  <g stroke-linecap="round"><g transform="translate(22.82845652530068 32.376275861213344) rotate(0 13.320729395369654 0.10520146462408775)"><path d="M-0.12 -0.12 C4.23 -0.22, 21.78 0, 26.18 -0.02 M0.82 -0.66 C5.34 -0.45, 22.75 0.43, 27.18 0.56" stroke="#000000" stroke-width="1" fill="none"></path></g></g><mask></mask><g stroke-linecap="round"><g transform="translate(17.666872893060372 30.643441153532876) rotate(86.37904829927301 6.899474239794699 3.741939942418867)"><path d="M0 0 C1.71 1.77, 3.42 4.55, 6.95 7.48 M0 0 C1.82 1.67, 3.42 3.86, 6.95 7.48 M6.95 7.48 C9.13 5.44, 11.18 3.67, 13.8 0.06 M6.95 7.48 C8.86 5.45, 11.13 3.1, 13.8 0.06" stroke="#000000" stroke-width="1" fill="none"></path></g></g><mask></mask><g stroke-linecap="round" transform="translate(10 10) rotate(89.99999999999994 24.195395508823367 24.195395508823253)"><path d="M28.71 0.53 C33.61 1.03, 39.12 4.7, 42.47 8.63 C45.81 12.56, 48.66 18.94, 48.78 24.11 C48.9 29.28, 46.52 35.66, 43.17 39.65 C39.82 43.64, 33.78 47.07, 28.68 48.04 C23.57 49, 17.07 48.02, 12.53 45.44 C7.99 42.85, 3.2 37.48, 1.43 32.52 C-0.33 27.56, 0.09 20.5, 1.94 15.65 C3.79 10.81, 8.03 6.05, 12.53 3.46 C17.04 0.86, 26.18 0.54, 28.99 0.08 C31.79 -0.37, 29.42 0.33, 29.36 0.72 M20.55 0.59 C25.26 -0.72, 31.8 0.28, 36.31 2.81 C40.83 5.33, 45.87 10.86, 47.64 15.75 C49.4 20.64, 48.88 27.21, 46.93 32.17 C44.98 37.12, 40.39 42.96, 35.93 45.48 C31.47 47.99, 25.36 48.23, 20.19 47.26 C15.03 46.3, 8.39 43.57, 4.95 39.69 C1.51 35.8, -0.47 29.21, -0.45 23.94 C-0.42 18.67, 1.74 11.99, 5.08 8.08 C8.43 4.16, 17.13 1.56, 19.63 0.46 C22.13 -0.63, 19.96 1.17, 20.09 1.49" stroke="#000000" stroke-width="1" fill="none"></path></g></svg>